<?xml version="1.0" encoding="UTF-8"?>
<!DOCTYPE svg PUBLIC "-//W3C//DTD SVG 1.1//EN" "http://www.w3.org/Graphics/SVG/1.1/DTD/svg11.dtd">
<!-- Creator: CorelDRAW X6 -->
<svg xmlns="http://www.w3.org/2000/svg" xml:space="preserve" width="6.6001mm" height="6.5999mm" version="1.1" style="shape-rendering:geometricPrecision; text-rendering:geometricPrecision; image-rendering:optimizeQuality; fill-rule:evenodd; clip-rule:evenodd"
viewBox="0 0 49 49"
 xmlns:xlink="http://www.w3.org/1999/xlink">
 <defs>
  <style type="text/css">
   <![CDATA[
    .fil0 {fill:#577DBE}
    .fil1 {fill:white}
   ]]>
  </style>
 </defs>
 <g id="Слой_x0020_1">
  <metadata id="CorelCorpID_0Corel-Layer"/>
  <g id="_643611328">
   <path class="fil0" d="M25 49c14,0 25,-11 25,-25 0,-14 -11,-25 -25,-25 -14,0 -25,11 -25,25 0,14 11,25 25,25z"/>
   <path class="fil1" d="M19 21l2 0 0 -2c0,-1 0,-3 1,-4 1,-1 2,-2 4,-2 3,0 4,0 4,0l-1 4c0,0 -1,0 -2,0 -1,0 -2,0 -2,1l0 3 4 0 0 4 -4 0 0 12 -5 0 0 -12 -2 0 0 -4z"/>
  </g>
 </g>
</svg>
