<?xml version="1.0" encoding="UTF-8"?>
<!DOCTYPE svg PUBLIC "-//W3C//DTD SVG 1.1//EN" "http://www.w3.org/Graphics/SVG/1.1/DTD/svg11.dtd">
<!-- Creator: CorelDRAW X6 -->
<svg xmlns="http://www.w3.org/2000/svg" xml:space="preserve" width="6.6001mm" height="6.5999mm" version="1.1" style="shape-rendering:geometricPrecision; text-rendering:geometricPrecision; image-rendering:optimizeQuality; fill-rule:evenodd; clip-rule:evenodd"
viewBox="0 0 62 62"
 xmlns:xlink="http://www.w3.org/1999/xlink">
 <defs>
  <style type="text/css">
   <![CDATA[
    .fil1 {fill:#FEFEFE}
    .fil0 {fill:#E31E24}
   ]]>
  </style>
 </defs>
 <g id="Слой_x0020_1">
  <metadata id="CorelCorpID_0Corel-Layer"/>
  <path class="fil0" d="M31 62c17,0 31,-14 31,-31 0,-17 -14,-31 -31,-31 -17,0 -31,14 -31,31 0,17 14,31 31,31z"/>
  <path class="fil1" d="M46 29l-4 0 0 -4 -3 0 0 4 -4 0 0 3 4 0 0 4 3 0 0 -4 4 0 0 -3zm-14 4c-1,-1 -2,-2 -2,-3 0,-1 0,-1 2,-3 2,-1 3,-3 3,-5 0,-2 -1,-5 -3,-5l3 0 2 -2 -9 0c-4,0 -8,3 -8,7 0,4 3,7 7,7 0,0 1,0 1,0 0,1 0,1 0,2 0,1 1,2 1,3 -1,0 -1,0 -2,0 -5,0 -9,3 -9,7 0,3 4,6 10,6 6,0 9,-3 9,-7 0,-3 -1,-4 -3,-6zm-5 -5c-2,0 -5,-3 -5,-6 0,-3 1,-6 4,-6 2,0 5,3 5,6 0,3 -1,6 -4,6zm-1 16c-4,0 -6,-2 -6,-5 0,-3 3,-5 7,-5 1,0 2,0 2,0 2,1 3,2 4,4 0,0 0,1 0,1 0,3 -2,5 -7,5z"/>
 </g>
</svg>
