<?xml version="1.0" encoding="UTF-8"?>
<!DOCTYPE svg PUBLIC "-//W3C//DTD SVG 1.1//EN" "http://www.w3.org/Graphics/SVG/1.1/DTD/svg11.dtd">
<!-- Creator: CorelDRAW X6 -->
<svg xmlns="http://www.w3.org/2000/svg" xml:space="preserve" width="6.6001mm" height="6.5999mm" version="1.1" style="shape-rendering:geometricPrecision; text-rendering:geometricPrecision; image-rendering:optimizeQuality; fill-rule:evenodd; clip-rule:evenodd"
viewBox="0 0 25 25"
 xmlns:xlink="http://www.w3.org/1999/xlink">
 <defs>
  <style type="text/css">
   <![CDATA[
    .fil0 {fill:#3960A1}
    .fil1 {fill:white}
   ]]>
  </style>
 </defs>
 <g id="Слой_x0020_1">
  <metadata id="CorelCorpID_0Corel-Layer"/>
  <g id="_650740992">
   <path class="fil0" d="M12 25c7,0 12,-6 12,-12 0,-7 -6,-12 -12,-12 -7,0 -12,6 -12,12 0,7 6,12 12,12z"/>
   <path class="fil1" d="M9 10l1 0 0 -1c0,-1 0,-1 0,-2 0,-1 1,-1 2,-1 2,0 2,0 2,0l0 2c0,0 -1,0 -1,0 0,0 -1,0 -1,1l0 1 2 0 0 2 -2 0 0 6 -2 0 0 -6 -1 0 0 -2z"/>
  </g>
 </g>
</svg>
