<?xml version="1.0" encoding="UTF-8"?>
<!DOCTYPE svg PUBLIC "-//W3C//DTD SVG 1.1//EN" "http://www.w3.org/Graphics/SVG/1.1/DTD/svg11.dtd">
<!-- Creator: CorelDRAW X6 -->
<svg xmlns="http://www.w3.org/2000/svg" xml:space="preserve" width="6.6001mm" height="6.5999mm" version="1.1" style="shape-rendering:geometricPrecision; text-rendering:geometricPrecision; image-rendering:optimizeQuality; fill-rule:evenodd; clip-rule:evenodd"
viewBox="0 0 25 25"
 xmlns:xlink="http://www.w3.org/1999/xlink">
 <defs>
  <style type="text/css">
   <![CDATA[
    .fil1 {fill:#FEFEFE}
    .fil0 {fill:#56AACE}
   ]]>
  </style>
 </defs>
 <g id="Слой_x0020_1">
  <metadata id="CorelCorpID_0Corel-Layer"/>
  <g id="_650740032">
   <path class="fil0" d="M13 25c7,0 13,-6 13,-13 0,-7 -6,-13 -13,-13 -7,0 -13,6 -13,13 0,7 6,13 13,13z"/>
   <path class="fil1" d="M19 9c0,0 -1,0 -1,0 1,0 1,-1 1,-1 0,0 -1,1 -2,1 0,0 -1,-1 -2,-1 -1,0 -3,1 -3,3 0,0 0,0 0,1 -2,0 -4,-1 -5,-3 0,0 0,1 0,1 0,1 0,2 1,2 0,0 -1,0 -1,0l0 0c0,1 1,2 2,2 0,0 0,0 -1,0 0,0 0,0 0,0 0,1 1,2 2,2 -1,1 -2,1 -3,1 0,0 0,0 -1,0 1,1 2,1 4,1 5,0 7,-4 7,-7 0,0 0,0 0,0 0,0 1,-1 1,-1z"/>
  </g>
 </g>
</svg>
